<?xml version="1.0" encoding="utf-8"?>
<!-- Generator: Adobe Illustrator 17.1.0, SVG Export Plug-In . SVG Version: 6.00 Build 0)  -->
<!DOCTYPE svg PUBLIC "-//W3C//DTD SVG 1.1//EN" "http://www.w3.org/Graphics/SVG/1.1/DTD/svg11.dtd">
<svg version="1.1" id="Camada_1" xmlns="http://www.w3.org/2000/svg" xmlns:xlink="http://www.w3.org/1999/xlink" x="0px" y="0px"
	 width="452px" height="129px" viewBox="0 0 452 129" enable-background="new 0 0 452 129" xml:space="preserve">
<rect x="-22" y="-164" display="none" fill="#727272" width="500" height="500"/>
<g>
	<g>
		<path fill="#FFFFFF" d="M187.3,65.2l-21.1,21.6v24.7h-6.9v-94h6.9V78l58.7-60.5h8.3l-41.4,42.7l44.2,51.3h-8.3L187.3,65.2z"/>
		<path fill="#FFFFFF" d="M251.7,11.9h6.7v99.7h-6.7V11.9z"/>
		<path fill="#FFFFFF" d="M339.7,45.4c5.3,3,9.4,7.2,12.4,12.6c3,5.4,4.5,11.6,4.5,18.5c0,6.9-1.5,13-4.5,18.4
			c-3,5.4-7.1,9.6-12.4,12.6c-5.3,3-11.2,4.6-17.7,4.6c-6.3,0-11.9-1.5-17-4.5c-5.1-3-9-7.2-11.8-12.6v16.5h-6.4V11.9h6.7v45.5
			c2.8-5.2,6.7-9.2,11.7-12.2c5-2.9,10.6-4.4,16.8-4.4C328.5,40.9,334.4,42.4,339.7,45.4z M336.1,102.3c4.3-2.5,7.7-6,10.1-10.5
			c2.5-4.5,3.7-9.6,3.7-15.3c0-5.7-1.2-10.8-3.7-15.3c-2.5-4.5-5.8-8-10.1-10.5c-4.3-2.5-9.1-3.8-14.5-3.8s-10.2,1.3-14.4,3.8
			c-4.3,2.5-7.6,6-10.1,10.5c-2.5,4.5-3.7,9.6-3.7,15.3c0,5.7,1.2,10.8,3.7,15.3c2.5,4.5,5.8,8,10.1,10.5c4.3,2.5,9.1,3.8,14.4,3.8
			S331.8,104.8,336.1,102.3z"/>
		<path fill="#FFFFFF" d="M408.5,73.6V56.4h15v17.2h11.3v14.4h-11.3v23.6h-15V87.9h-40.3V74l34.5-56.3H420l-34,55.9H408.5z"/>
	</g>
</g>
<g>
	<g>
		<g>
			<path fill="#FFFFFF" d="M129.3,47c-0.5-3.9-0.6-10.5,3-12.8c0.1,0,0.1-0.1,0.2-0.2c2.9-0.9,5-2.3,3.4-4L92.6,17l-70.1,9.7
				c0,0-8,1.1-7.3,13.6c0.4,6.8,2.5,10.1,4.4,11.8l-5.7,1.7c-1.6,1.8,0.4,3.1,3.4,4c0.1,0.1,0.1,0.1,0.2,0.2c3.6,2.2,3.5,8.9,3,12.8
				c-12.9,3.7-8.3,4.8-8.3,4.8l2.8,0.7c-2,1.8-4,5.2-3.6,11.7c0.7,12.5,7.3,13.3,7.3,13.3l45.9,14.9l69.2-16.8c0,0,4.6-1.2-8.3-4.9
				c-0.5-3.9-0.6-10.5,3-12.8c0.1,0,0.1-0.1,0.2-0.2c2.9-0.9,5-2.3,3.4-4l-3-0.9c2-1.2,5-4.4,5.5-12.6c0.3-5.6-1.1-9-2.9-10.9
				l5.9-1.4C137.6,51.8,142.2,50.7,129.3,47z M71.4,46.8l11.6-2.4l39.3-8.1l5.9-1.2c-1.9,3.4-1.8,8.1-1.5,11.1
				c0.1,0.7,0.1,1.3,0.2,1.8l-6.4,1.6L70.9,62L71.4,46.8z M21.4,59l5.9,1.2l37.8,7.8l3.3,0.7l0,0l0,0l9.9,2l0.5,15.2l-51-12.7
				l-5-1.3c0.1-0.5,0.2-1.1,0.2-1.8C23.2,67.1,23.3,62.4,21.4,59z M19.2,39.8c-0.1-3.3,0.5-5.7,1.7-6.9c0.8-0.8,1.7-0.9,2.3-0.9
				c0.3,0,0.6,0,0.6,0l30.2,9.8L69,46.7L68.5,62L26.2,50.1L24,49.5c-0.1,0-0.2,0-0.3,0C23.5,49.5,19.4,49.1,19.2,39.8z M64.6,109.6
				L20.1,97.1c-0.1,0-0.2,0-0.3,0c-0.2,0-4.4-0.4-4.6-9.7c-0.1-3.3,0.5-5.7,1.7-6.9c0.8-0.8,1.7-0.9,2.3-0.9c0.3,0,0.6,0,0.6,0
				c0,0,0,0,0,0l45.3,14.8L64.6,109.6z M122.9,93.9c0.1,0.7,0.1,1.3,0.2,1.8l-56.1,13.9l0.5-15.2l12-2.5l1.8,0.4l6.6-2.2l30.6-6.3
				l5.9-1.2C122.5,86.2,122.6,90.9,122.9,93.9z M126,73.3c-0.1,0-0.2,0-0.3,0l-4.2,1.2L81.2,85.8l-0.5-15.3l13.2-4.3l32-10.4
				c0,0,1.7-0.4,2.9,0.9c1.2,1.2,1.8,3.6,1.7,6.9C130.3,72.9,126.1,73.3,126,73.3z"/>
		</g>
	</g>
	<g>
	</g>
	<g>
	</g>
	<g>
	</g>
	<g>
	</g>
	<g>
	</g>
	<g>
	</g>
	<g>
	</g>
	<g>
	</g>
	<g>
	</g>
	<g>
	</g>
	<g>
	</g>
	<g>
	</g>
	<g>
	</g>
	<g>
	</g>
	<g>
	</g>
</g>
</svg>
